Land_normalized_pl02_filtered_grf
version=1
nRows=12
nColumns=37
inDegrees=yes
endheader
time		1_ground_force_vx		1_ground_force_vy		1_ground_force_vz		1_ground_force_px		1_ground_force_py		1_ground_force_pz		1_ground_torque_x		1_ground_torque_y		1_ground_torque_z		2_ground_force_vx		2_ground_force_vy		2_ground_force_vz		2_ground_force_px		2_ground_force_py		2_ground_force_pz		2_ground_torque_x		2_ground_torque_y		2_ground_torque_z		3_ground_force_vx		3_ground_force_vy		3_ground_force_vz		3_ground_force_px		3_ground_force_py		3_ground_force_pz		3_ground_torque_x		3_ground_torque_y		3_ground_torque_z		4_ground_force_vx		4_ground_force_vy		4_ground_force_vz		4_ground_force_px		4_ground_force_py		4_ground_force_pz		4_ground_torque_x		4_ground_torque_y		4_ground_torque_z		
0.773667		7.174826		910.313647		198.262351		0.125275		0.000000		0.280963		0.195473		24.793443		5.399913		49.662558		1217.483121		184.677494		-0.116983		0.000000		0.283019		-0.726007		-17.796021		-2.699218		21.940209		1.399402		0.646159		0.375398		1.311166		1.913281		-0.106426		-0.006788		-0.003134		-18.192991		-0.523108		1.396260		-0.265358		1.310077		1.923825		0.000075		0.000002		-0.000006		
0.776444		0.899675		875.937033		189.738229		0.125324		0.000000		0.279078		0.023079		22.434242		4.859527		39.166351		1151.888952		193.987168		-0.114545		0.000000		0.280107		-0.511986		-15.056446		-2.535534		22.001685		1.380373		0.606015		0.375409		1.311147		1.913262		-0.106302		-0.006670		-0.002928		-18.146584		-0.468662		1.391355		-0.265341		1.310073		1.923795		0.001210		0.000031		-0.000093		
0.779222		-6.562198		843.323586		181.160503		0.125495		0.000000		0.277019		-0.156156		20.083538		4.314317		28.522456		1083.207799		199.311397		-0.111903		0.000000		0.277296		-0.340508		-12.929506		-2.378944		22.072541		1.315721		0.544889		0.375415		1.311131		1.913246		-0.105810		-0.006308		-0.002612		-18.171717		-0.451519		1.380517		-0.265336		1.310074		1.923770		0.002613		0.000065		-0.000198		
0.782000		-14.897267		813.529896		172.933915		0.125971		0.000000		0.275416		-0.327342		17.875954		3.799933		19.121122		1015.732801		199.566138		-0.109435		0.000000		0.274974		-0.219264		-11.647512		-2.288445		22.150259		1.225492		0.456464		0.375418		1.311122		1.913230		-0.105057		-0.005812		-0.002165		-18.255818		-0.480106		1.362059		-0.265339		1.310081		1.923754		0.004050		0.000107		-0.000302		
0.784778		-23.655434		787.191466		165.679875		0.126822		0.000000		0.274657		-0.478647		15.932294		3.353282		12.735019		952.793391		196.110369		-0.107554		0.000000		0.273306		-0.146871		-10.988876		-2.261817		22.227119		1.136745		0.339138		0.375419		1.311122		1.913215		-0.104319		-0.005335		-0.001591		-18.372413		-0.556066		1.337518		-0.265350		1.310093		1.923742		0.005181		0.000157		-0.000377		
0.787556		-32.361359		764.353718		159.997104		0.127957		0.000000		0.274666		-0.606121		14.317152		2.996915		10.681112		896.377674		191.676327		-0.106564		0.000000		0.272186		-0.124868		-10.479170		-2.240807		22.288874		1.074439		0.205528		0.375420		1.311132		1.913200		-0.103870		-0.005007		-0.000957		-18.487837		-0.668756		1.314485		-0.265363		1.310106		1.923734		0.005707		0.000207		-0.000406		
0.790333		-40.633531		744.826898		156.244150		0.129207		0.000000		0.275077		-0.709632		13.009203		2.728964		13.317942		847.548361		188.751230		-0.106569		0.000000		0.271370		-0.152797		-9.725095		-2.165775		22.319600		1.051698		0.080969		0.375423		1.311152		1.913182		-0.103823		-0.004892		-0.000377		-18.572777		-0.797570		1.306520		-0.265375		1.310117		1.923726		0.005476		0.000235		-0.000385		
0.793111		-48.215471		728.237647		154.404081		0.130407		0.000000		0.275442		-0.787672		11.897609		2.522568		19.659238		806.510437		188.620541		-0.107402		0.000000		0.270627		-0.210005		-8.617465		-2.015327		22.311178		1.063490		-0.004861		0.375427		1.311173		1.913162		-0.104047		-0.004959		0.000022		-18.610379		-0.914994		1.327632		-0.265381		1.310124		1.923718		0.004554		0.000224		-0.000325		
0.795889		-54.923177		714.302028		154.269724		0.131426		0.000000		0.275456		-0.836685		10.882070		2.350209		27.920240		773.134147		191.187415		-0.108715		0.000000		0.269858		-0.264751		-7.333087		-1.813312		22.268821		1.090557		-0.029409		0.375432		1.311194		1.913142		-0.104223		-0.005104		0.000137		-18.598962		-0.994129		1.384353		-0.265383		1.310126		1.923709		0.003167		0.000169		-0.000236		
0.798667		-60.566082		702.888181		155.628470		0.132170		0.000000		0.275011		-0.855206		9.925476		2.197593		36.263997		747.059969		195.417430		-0.110113		0.000000		0.269088		-0.299527		-6.171912		-1.614378		22.210500		1.109247		0.014422		0.375436		1.311211		1.913123		-0.103957		-0.005192		-0.000068		-18.550364		-1.015591		1.468540		-0.265382		1.310124		1.923700		0.001602		0.000088		-0.000127		
0.801444		-64.901357		694.067069		158.339035		0.132605		0.000000		0.274201		-0.845992		9.047352		2.063976		43.577097		727.829604		200.128871		-0.111324		0.000000		0.268389		-0.319940		-5.343973		-1.469393		22.158108		1.104632		0.115461		0.375439		1.311222		1.913105		-0.102990		-0.005135		-0.000537		-18.483981		-0.973538		1.557495		-0.265381		1.310120		1.923693		0.000094		0.000005		-0.000007		
0.804222		-67.637365		688.106829		162.272567		0.132761		0.000000		0.273271		-0.815983		8.301539		1.957669		49.734710		715.027218		204.615456		-0.112305		0.000000		0.267827		-0.338016		-4.859903		-1.390709		22.127410		1.077765		0.247810		0.375437		1.311227		1.913093		-0.101371		-0.004938		-0.001135		-18.420492		-0.877138		1.621807		-0.265384		1.310116		1.923690		-0.001229		-0.000058		0.000108		
